<svg width="18" height="38" viewBox="0 0 18 38" fill="none" xmlns="http://www.w3.org/2000/svg">
<path d="M10.8672 17.914H11.3672H16.1285L16.5965 12.6429H11.3687H10.8687V12.1429H11.3687L10.8687 12.1429V12.1428V12.1426V12.1425V12.1422V12.1419V12.1416V12.1412V12.1407V12.1402V12.1397V12.1391V12.1384V12.1377V12.1369V12.1361V12.1353V12.1344V12.1334V12.1324V12.1313V12.1302V12.129V12.1278V12.1265V12.1252V12.1239V12.1224V12.121V12.1195V12.1179V12.1163V12.1146V12.1129V12.1112V12.1094V12.1075V12.1056V12.1037V12.1017V12.0996V12.0975V12.0954V12.0932V12.091V12.0887V12.0864V12.084V12.0816V12.0791V12.0766V12.0741V12.0715V12.0688V12.0661V12.0634V12.0606V12.0578V12.0549V12.052V12.049V12.046V12.043V12.0399V12.0368V12.0336V12.0303V12.0271V12.0238V12.0204V12.017V12.0136V12.0101V12.0066V12.003V11.9994V11.9958V11.9921V11.9884V11.9846V11.9808V11.9769V11.973V11.9691V11.9651V11.9611V11.957V11.9529V11.9488V11.9446V11.9404V11.9361V11.9318V11.9275V11.9231V11.9187V11.9143V11.9098V11.9052V11.9007V11.8961V11.8914V11.8867V11.882V11.8773V11.8725V11.8676V11.8628V11.8579V11.8529V11.8479V11.8429V11.8379V11.8328V11.8277V11.8225V11.8173V11.8121V11.8068V11.8015V11.7962V11.7908V11.7854V11.7799V11.7745V11.769V11.7634V11.7578V11.7522V11.7466V11.7409V11.7352V11.7294V11.7237V11.7179V11.712V11.7061V11.7002V11.6943V11.6883V11.6823V11.6763V11.6702V11.6641V11.658V11.6518V11.6456V11.6394V11.6331V11.6268V11.6205V11.6142V11.6078V11.6014V11.5949V11.5885V11.582V11.5755V11.5689V11.5623V11.5557V11.5491V11.5424V11.5357V11.529V11.5222V11.5154V11.5086V11.5018V11.4949V11.488V11.4811V11.4741V11.4672V11.4602V11.4531V11.4461V11.439V11.4319V11.4248V11.4176V11.4104V11.4032V11.396V11.3887V11.3814V11.3741V11.3668V11.3594V11.352V11.3446V11.3372V11.3297V11.3223V11.3148V11.3072V11.2997V11.2921V11.2845V11.2769V11.2692V11.2616V11.2539V11.2462V11.2385V11.2307V11.2229V11.2151V11.2073V11.1995V11.1916V11.1837V11.1758V11.1679V11.16V11.152V11.144V11.136V11.128V11.1199V11.1119V11.1038V11.0957V11.0876V11.0794V11.0712V11.0631V11.0549V11.0467V11.0384V11.0302V11.0219V11.0136V11.0053V10.997V10.9886V10.9803V10.9719V10.9635V10.9551V10.9467V10.9382V10.9298V10.9213V10.9128V10.9043V10.8958V10.8873V10.8787V10.8701V10.8616V10.853V10.8443V10.8357V10.8271V10.8184V10.8098V10.8011V10.7924V10.7837V10.7749V10.7662V10.7574V10.7487V10.7399V10.7311V10.7223V10.7135V10.7047V10.6958V10.687V10.6781V10.6693V10.6604V10.6515V10.6426V10.6336V10.6247V10.6158V10.6068V10.5979V10.5889V10.5799V10.5709V10.5619V10.5529V10.5439V10.5349V10.5258V10.5168V10.5077V10.4987V10.4896V10.4805V10.4714V10.4623V10.4532V10.4441V10.435V10.4258V10.4167V10.4076V10.3984V10.3893V10.3801V10.3709V10.3618V10.3526V10.3434V10.3342V10.325V10.3158V10.3066V10.2973V10.2881V10.2789V10.2697V10.2604V10.2512V10.2419V10.2327V10.2234V10.2142V10.2049V10.1957V10.1864V10.1771V10.1678V10.1586V10.1493V10.14V10.1307V10.1214V10.1121V10.1028V10.0936V10.0843V10.075V10.0657V10.0564V10.0471V10.0378V10.0285V10.0192V10.0098V10.0005V9.99124V9.98193V9.97263V9.96332V9.95402V9.94472V9.93541V9.92611V9.91681V9.90751V9.89821V9.88892V9.87962V9.87033V9.86104V9.85175V9.84246V9.83317V9.82389V9.81461V9.80534V9.79606V9.78679V9.77753V9.76826V9.759V9.74975V9.7405V9.73125V9.722V9.71277V9.70353V9.6943V9.68508V9.67586V9.66664V9.65743V9.64823V9.63903V9.62984V9.62065V9.61147V9.6023V9.59313V9.58397V9.57482V9.56567V9.55653V9.5474V9.53827V9.52915V9.52004V9.51094V9.50185V9.49276V9.48368V9.47461V9.46555V9.4565V9.44746V9.43842V9.4294V9.42038V9.41138V9.40238V9.39339V9.38442V9.37545V9.36649V9.35755V9.34861V9.33969V9.33077V9.32187V9.31298V9.3041V9.29523V9.28638V9.27753V9.2687V9.25988V9.25107V9.24227V9.23349V9.22472V9.21596V9.20722V9.19849V9.18977V9.18106V9.17237V9.1637V9.15503V9.14638V9.13775V9.12913V9.12052V9.11193V9.10336V9.0948V9.08625V9.07772V9.06921V9.06071V9.05223V9.04376V9.03531V9.02687V9.01846V9.01005V9.00167V8.9933V8.98495V8.97662V8.9683V8.96V8.95172V8.94346V8.93522V8.92699V8.91878V8.91059V8.90242V8.89427V8.88614V8.87802V8.86993V8.86185V8.85379V8.84576V8.83774V8.82974V8.82177V8.81381V8.80588V8.79796V8.79007V8.78219V8.77434V8.76651V8.7587V8.75091V8.74315V8.7354V8.72768V8.71998V8.7123V8.70465V8.69701V8.6894V8.68182V8.67425V8.66671V8.65919V8.6517V8.64423V8.63679V8.62936V8.62197V8.61459V8.60724V8.59992V8.59262V8.58534V8.5781V8.57087C10.8687 7.83801 10.9323 7.16052 11.2987 6.68149C11.6976 6.16008 12.3351 6.00869 13.0954 6.00869H13.1022H13.109H13.1159H13.1227H13.1297H13.1366H13.1436H13.1506H13.1577H13.1648H13.172H13.1792H13.1864H13.1937H13.201H13.2083H13.2157H13.2231H13.2305H13.238H13.2455H13.2531H13.2607H13.2683H13.276H13.2836H13.2914H13.2991H13.3069H13.3148H13.3226H13.3305H13.3385H13.3464H13.3544H13.3625H13.3705H13.3786H13.3867H13.3949H13.4031H13.4113H13.4196H13.4278H13.4362H13.4445H13.4529H13.4613H13.4697H13.4782H13.4867H13.4952H13.5038H13.5123H13.521H13.5296H13.5383H13.547H13.5557H13.5644H13.5732H13.582H13.5909H13.5997H13.6086H13.6175H13.6265H13.6354H13.6444H13.6535H13.6625H13.6716H13.6807H13.6898H13.6989H13.7081H13.7173H13.7265H13.7357H13.745H13.7543H13.7636H13.7729H13.7823H13.7917H13.8011H13.8105H13.8199H13.8294H13.8389H13.8484H13.8579H13.8675H13.877H13.8866H13.8963H13.9059H13.9155H13.9252H13.9349H13.9446H13.9543H13.9641H13.9739H13.9836H13.9934H14.0033H14.0131H14.023H14.0328H14.0427H14.0526H14.0626H14.0725H14.0825H14.0924H14.1024H14.1124H14.1224H14.1325H14.1425H14.1526H14.1627H14.1728H14.1829H14.193H14.2031H14.2133H14.2235H14.2336H14.2438H14.254H14.2642H14.2745H14.2847H14.295H14.3052H14.3155H14.3258H14.3361H14.3464H14.3567H14.367H14.3774H14.3877H14.3981H14.4085H14.4188H14.4292H14.4396H14.45H14.4605H14.4709H14.4813H14.4917H14.5022H14.5127H14.5231H14.5336H14.5441H14.5545H14.565H14.5755H14.586H14.5965H14.6071H14.6176H14.6281H14.6386H14.6492H14.6597H14.6702H14.6808H14.6913H14.7019H14.7125H14.723H14.7336H14.7442H14.7547H14.7653H14.7759H14.7865H14.797H14.8076H14.8182H14.8288H14.8394H14.85H14.8606H14.8712H14.8817H14.8923H14.9029H14.9135H14.9241H14.9347H14.9453H14.9559H14.9664H14.977H14.9876H14.9982H15.0088H15.0193H15.0299H15.0405H15.0511H15.0616H15.0722H15.0827H15.0933H15.1038H15.1144H15.1249H15.1355H15.146H15.1565H15.167H15.1775H15.1881H15.1986H15.209H15.2195H15.23H15.2405H15.251H15.2614H15.2719H15.2823H15.2928H15.3032H15.3136H15.3241H15.3345H15.3449H15.3552H15.3656H15.376H15.3864H15.3967H15.4071H15.4174H15.4277H15.438H15.4483H15.4586H15.4689H15.4791H15.4894H15.4996H15.5099H15.5201H15.5303H15.5405H15.5507H15.5608H15.571H15.5811H15.5912H15.6013H15.6114H15.6215H15.6316H15.6416H15.6517H15.6617H15.6717H15.6817H15.6917H15.7016H15.7116H15.7215H15.7314H15.7413H15.7512H15.761H15.7709H15.7807H15.7905H15.8003H15.8101H15.8198H15.8296H15.8393H15.849H15.8586H15.8683H15.8779H15.8875H15.8971H15.9067H15.9163H15.9258H15.9353H15.9448H15.9543H15.9637H15.9731H15.9825H15.9919H16.0013H16.0106H16.0199H16.0292H16.0385H16.0477H16.0569H16.0661H16.0753H16.0844H16.0936H16.1027H16.1117H16.1208H16.1298H16.1388H16.1478H16.1567H16.1656H16.1745H16.1834H16.1922H16.201H16.2098H16.2186H16.2273H16.236H16.2447H16.2533H16.2619H16.2705H16.2791H16.2876H16.2961H16.3046H16.313H16.3214H16.3298H16.3382H16.3465H16.3548H16.363H16.3712H16.3794H16.3876H16.3957H16.4038H16.4119H16.4199H16.4279H16.4359H16.4438H16.4517H16.4596H16.4674H16.4752H16.483H16.4907H16.4984H16.5061H16.5137H16.5213H16.5289H16.5364H16.5439H16.5513H16.5587H16.5661H16.5735H16.5808H16.588H16.5953H16.6024H16.6096H16.6167H16.6238H16.6308H16.6378H16.6429V0.5H16.6362H16.6276H16.6188H16.6101H16.6012H16.5924H16.5834H16.5744H16.5653H16.5562H16.547H16.5378H16.5285H16.5191H16.5097H16.5003H16.4908H16.4812H16.4716H16.4619H16.4521H16.4423H16.4325H16.4226H16.4127H16.4026H16.3926H16.3825H16.3723H16.3621H16.3519H16.3416H16.3312H16.3208H16.3103H16.2998H16.2893H16.2787H16.268H16.2573H16.2466H16.2358H16.2249H16.2141H16.2031H16.1921H16.1811H16.1701H16.1589H16.1478H16.1366H16.1253H16.1141H16.1027H16.0914H16.0799H16.0685H16.057H16.0454H16.0339H16.0222H16.0106H15.9989H15.9872H15.9754H15.9636H15.9517H15.9398H15.9279H15.9159H15.9039H15.8919H15.8798H15.8677H15.8555H15.8433H15.8311H15.8189H15.8066H15.7943H15.7819H15.7695H15.7571H15.7446H15.7321H15.7196H15.7071H15.6945H15.6819H15.6692H15.6566H15.6439H15.6311H15.6184H15.6056H15.5928H15.5799H15.567H15.5541H15.5412H15.5282H15.5153H15.5022H15.4892H15.4761H15.4631H15.45H15.4368H15.4237H15.4105H15.3973H15.384H15.3708H15.3575H15.3442H15.3309H15.3176H15.3042H15.2908H15.2774H15.264H15.2506H15.2371H15.2236H15.2101H15.1966H15.1831H15.1695H15.156H15.1424H15.1288H15.1151H15.1015H15.0879H15.0742H15.0605H15.0468H15.0331H15.0194H15.0057H14.9919H14.9781H14.9644H14.9506H14.9368H14.923H14.9092H14.8953H14.8815H14.8676H14.8538H14.8399H14.826H14.8121H14.7982H14.7843H14.7704H14.7565H14.7426H14.7286H14.7147H14.7007H14.6868H14.6728H14.6589H14.6449H14.6309H14.617H14.603H14.589H14.575H14.561H14.547H14.533H14.519H14.5051H14.4911H14.4771H14.4631H14.4491H14.4351H14.4211H14.4071H14.3931H14.3791H14.3651H14.3511H14.3371H14.3232H14.3092H14.2952H14.2812H14.2673H14.2533H14.2394H14.2254H14.2115H14.1975H14.1836H14.1697H14.1558H14.1419H14.128H14.1141H14.1002H14.0863H14.0725H14.0586H14.0448H14.0309H14.0171H14.0033H13.9895H13.9757H13.9619H13.9482H13.9344H13.9207H13.9069H13.8932H13.8795H13.8658H13.8522H13.8385H13.8249H13.8113H13.7977H13.7841H13.7705H13.7569H13.7434H13.7299H13.7164H13.7029H13.6894H13.676H13.6626H13.6492H13.6358H13.6224H13.6091H13.5957H13.5824H13.5692H13.5559H13.5427H13.5295H13.5163H13.5031H13.49H13.4769H13.4638H13.4507H13.4377H13.4246H13.4116H13.3987H13.3857H13.3728H13.36H13.3471H13.3343H13.3215H13.3087H13.296H13.2833H13.2706H13.2579H13.2453H13.2327H13.2202H13.2076H13.1951H13.1827H13.1702H13.1579H13.1455H13.1332H13.1209H13.1086H13.0964H13.0842H13.072H13.0599H13.0478H13.0358H13.0237H13.0118H12.9998H12.9879H12.9761H12.9642H12.9525H12.9407H12.929H12.9173H12.9057H12.8941H12.8826H12.8711H12.8596H12.8482H12.8368H12.8254H12.8141H12.8029H12.7917H12.7805H12.7694H12.7583H12.7473H12.7363H12.7254H12.7145H12.7036H12.6928H12.682H12.6713H12.6607H12.6501H12.6395H12.629H12.6185H12.6081H12.5977H12.5874H12.5771H12.5669H12.5567H12.5466H12.5366H12.5265H12.5166H12.5067H12.4968H12.487H12.4773H12.4676H12.4579H12.4483H12.4388H12.4293H12.4199H12.4105H12.4012H12.392H12.3828H12.3737H12.3646H12.3555H12.3466H12.3377H12.3288H12.3201H12.3113H12.3027H12.2941H12.2855H12.277H12.2686H12.2602H12.2519H12.2437H12.2355H12.2274H12.2194H12.2114H12.2035H12.1956H12.1878H12.1801H12.1725H12.1649H12.1573H12.1499H12.1425H12.1352H12.1279H12.1207H12.1136H12.1065H12.0996H12.0927H12.0858H12.079H12.0723H12.0657H12.0591H12.0526H12.0462H12.0399H12.0336H12.0274H12.0213H12.0152H12.0092H12.0033H11.9975H11.9917H11.986H11.9804H11.9749H11.9694H11.9641C9.24383 0.5 7.36959 1.10051 6.17605 2.18246C4.99236 3.25548 4.39002 4.88324 4.39002 7.14263L10.8672 17.914ZM10.8672 17.914V18.414V36.6429V17.914ZM4.39002 12.6414H3.89002H4.39002ZM4.39002 12.6414V12.1414M4.39002 12.6414V12.1414M4.39002 12.1414V12.1414M4.39002 12.1414V12.1414M4.39002 12.1414V12.1413M4.39002 12.1414V12.1413M4.39002 12.1413V12.1413M4.39002 12.1413V12.1413M4.39002 12.1413V12.1412M4.39002 12.1413V12.1412M4.39002 12.1412V12.1411M4.39002 12.1412V12.1411M4.39002 12.1411V12.1409M4.39002 12.1411V12.1409M4.39002 12.1409V12.1408M4.39002 12.1409V12.1408M4.39002 12.1408V12.1406M4.39002 12.1408V12.1406M4.39002 12.1406V12.1404M4.39002 12.1406V12.1404M4.39002 12.1404V12.1402M4.39002 12.1404V12.1402M4.39002 12.1402V12.1399M4.39002 12.1402V12.1399M4.39002 12.1399V12.1396M4.39002 12.1399V12.1396M4.39002 12.1396V12.1393M4.39002 12.1396V12.1393M4.39002 12.1393V12.139M4.39002 12.1393V12.139M4.39002 12.139V12.1387M4.39002 12.139V12.1387M4.39002 12.1387V12.1383M4.39002 12.1387V12.1383M4.39002 12.1383V12.138M4.39002 12.1383V12.138M4.39002 12.138V12.1376M4.39002 12.138V12.1376M4.39002 12.1376V12.1371M4.39002 12.1376V12.1371M4.39002 12.1371V12.1367M4.39002 12.1371V12.1367M4.39002 12.1367V12.1362M4.39002 12.1367V12.1362M4.39002 12.1362V12.1357M4.39002 12.1362V12.1357M4.39002 12.1357V12.1352M4.39002 12.1357V12.1352M4.39002 12.1352V12.1347M4.39002 12.1352V12.1347M4.39002 12.1347V12.1341M4.39002 12.1347V12.1341M4.39002 12.1341V12.1335M4.39002 12.1341V12.1335M4.39002 12.1335V12.1329M4.39002 12.1335V12.1329M4.39002 12.1329V12.1323M4.39002 12.1329V12.1323M4.39002 12.1323V12.1316M4.39002 12.1323V12.1316M4.39002 12.1316V12.1309M4.39002 12.1316V12.1309M4.39002 12.1309V12.1302M4.39002 12.1309V12.1302M4.39002 12.1302V12.1295M4.39002 12.1302V12.1295M4.39002 12.1295V12.1287M4.39002 12.1295V12.1287M4.39002 12.1287V12.1279M4.39002 12.1287V12.1279M4.39002 12.1279V12.1271M4.39002 12.1279V12.1271M4.39002 12.1271V12.1263M4.39002 12.1271V12.1263M4.39002 12.1263V12.1255M4.39002 12.1263V12.1255M4.39002 12.1255V12.1246M4.39002 12.1255V12.1246M4.39002 12.1246V12.1237M4.39002 12.1246V12.1237M4.39002 12.1237V12.1227M4.39002 12.1237V12.1227M4.39002 12.1227V12.1218M4.39002 12.1227V12.1218M4.39002 12.1218V12.1208M4.39002 12.1218V12.1208M4.39002 12.1208V12.1198M4.39002 12.1208V12.1198M4.39002 12.1198V12.1188M4.39002 12.1198V12.1188M4.39002 12.1188V12.1177M4.39002 12.1188V12.1177M4.39002 12.1177V12.1166M4.39002 12.1177V12.1166M4.39002 12.1166V12.1155M4.39002 12.1166V12.1155M4.39002 12.1155V12.1144M4.39002 12.1155V12.1144M4.39002 12.1144V12.1133M4.39002 12.1144V12.1133M4.39002 12.1133V12.1121M4.39002 12.1133V12.1121M4.39002 12.1121V12.1109M4.39002 12.1121V12.1109M4.39002 12.1109V12.1096M4.39002 12.1109V12.1096M4.39002 12.1096V12.1084M4.39002 12.1096V12.1084M4.39002 12.1084V12.1071M4.39002 12.1084V12.1071M4.39002 12.1071V12.1058M4.39002 12.1071V12.1058M4.39002 12.1058V12.1044M4.39002 12.1058V12.1044M4.39002 12.1044V12.1031M4.39002 12.1044V12.1031M4.39002 12.1031V12.1017M4.39002 12.1031V12.1017M4.39002 12.1017V12.1002M4.39002 12.1017V12.1002M4.39002 12.1002V12.0988M4.39002 12.1002V12.0988M4.39002 12.0988V12.0973M4.39002 12.0988V12.0973M4.39002 12.0973V12.0958M4.39002 12.0973V12.0958M4.39002 12.0958V12.0943M4.39002 12.0958V12.0943M4.39002 12.0943V12.0927M4.39002 12.0943V12.0927M4.39002 12.0927V12.0911M4.39002 12.0927V12.0911M4.39002 12.0911V12.0895M4.39002 12.0911V12.0895M4.39002 12.0895V12.0879M4.39002 12.0895V12.0879M4.39002 12.0879V12.0862M4.39002 12.0879V12.0862M4.39002 12.0862V12.0845M4.39002 12.0862V12.0845M4.39002 12.0845V12.0828M4.39002 12.0845V12.0828M4.39002 12.0828V12.0811M4.39002 12.0828V12.0811M4.39002 12.0811V12.0793M4.39002 12.0811V12.0793M4.39002 12.0793V12.0775M4.39002 12.0793V12.0775M4.39002 12.0775V12.0756M4.39002 12.0775V12.0756M4.39002 12.0756V12.0738M4.39002 12.0756V12.0738M4.39002 12.0738V12.0719M4.39002 12.0738V12.0719M4.39002 12.0719V12.07M4.39002 12.0719V12.07M4.39002 12.07V12.068M4.39002 12.07V12.068M4.39002 12.068V12.066M4.39002 12.068V12.066M4.39002 12.066V12.064M4.39002 12.066V12.064M4.39002 12.064V12.062M4.39002 12.064V12.062M4.39002 12.062V12.0599M4.39002 12.062V12.0599M4.39002 12.0599V12.0578M4.39002 12.0599V12.0578M4.39002 12.0578V12.0557M4.39002 12.0578V12.0557M4.39002 12.0557V12.0536M4.39002 12.0557V12.0536M4.39002 12.0536V12.0514M4.39002 12.0536V12.0514M4.39002 12.0514V12.0492M4.39002 12.0514V12.0492M4.39002 12.0492V12.0469M4.39002 12.0492V12.0469M4.39002 12.0469V12.0446M4.39002 12.0469V12.0446M4.39002 12.0446V12.0423M4.39002 12.0446V12.0423M4.39002 12.0423V12.04M4.39002 12.0423V12.04M4.39002 12.04V12.0376M4.39002 12.04V12.0376M4.39002 12.0376V12.0353M4.39002 12.0376V12.0353M4.39002 12.0353V12.0328M4.39002 12.0353V12.0328M4.39002 12.0328V12.0304M4.39002 12.0328V12.0304M4.39002 12.0304V12.0279M4.39002 12.0304V12.0279M4.39002 12.0279V12.0254M4.39002 12.0279V12.0254M4.39002 12.0254V12.0228M4.39002 12.0254V12.0228M4.39002 12.0228V12.0202M4.39002 12.0228V12.0202M4.39002 12.0202V12.0176M4.39002 12.0202V12.0176M4.39002 12.0176V12.015M4.39002 12.0176V12.015M4.39002 12.015V12.0123M4.39002 12.015V12.0123M4.39002 12.0123V12.0096M4.39002 12.0123V12.0096M4.39002 12.0096V12.0069M4.39002 12.0096V12.0069M4.39002 12.0069V12.0041M4.39002 12.0069V12.0041M4.39002 12.0041V12.0013M4.39002 12.0041V12.0013M4.39002 12.0013V11.9985M4.39002 12.0013V11.9985M4.39002 11.9985V11.9957M4.39002 11.9985V11.9957M4.39002 11.9957V11.9928M4.39002 11.9957V11.9928M4.39002 11.9928V11.9898M4.39002 11.9928V11.9898M4.39002 11.9898V11.9869M4.39002 11.9898V11.9869M4.39002 11.9869V11.9839M4.39002 11.9869V11.9839M4.39002 11.9839V11.9809M4.39002 11.9839V11.9809M4.39002 11.9809V11.9778M4.39002 11.9809V11.9778M4.39002 11.9778V11.9747M4.39002 11.9778V11.9747M4.39002 11.9747V11.9716M4.39002 11.9747V11.9716M4.39002 11.9716V11.9685M4.39002 11.9716V11.9685M4.39002 11.9685V11.9653M4.39002 11.9685V11.9653M4.39002 11.9653V11.9621M4.39002 11.9653V11.9621M4.39002 11.9621V11.9588M4.39002 11.9621V11.9588M4.39002 11.9588V11.9555M4.39002 11.9588V11.9555M4.39002 11.9555V11.9522M4.39002 11.9555V11.9522M4.39002 11.9522V11.9489M4.39002 11.9522V11.9489M4.39002 11.9489V11.9455M4.39002 11.9489V11.9455M4.39002 11.9455V11.9421M4.39002 11.9455V11.9421M4.39002 11.9421V11.9386M4.39002 11.9421V11.9386M4.39002 11.9386V11.9351M4.39002 11.9386V11.9351M4.39002 11.9351V11.9316M4.39002 11.9351V11.9316M4.39002 11.9316V11.9281M4.39002 11.9316V11.9281M4.39002 11.9281V11.9245M4.39002 11.9281V11.9245M4.39002 11.9245V11.9209M4.39002 11.9245V11.9209M4.39002 11.9209V11.9172M4.39002 11.9209V11.9172M4.39002 11.9172V11.9135M4.39002 11.9172V11.9135M4.39002 11.9135V11.9098M4.39002 11.9135V11.9098M4.39002 11.9098V11.9061M4.39002 11.9098V11.9061M4.39002 11.9061V11.9023M4.39002 11.9061V11.9023M4.39002 11.9023V11.8984M4.39002 11.9023V11.8984M4.39002 11.8984V11.8946M4.39002 11.8984V11.8946M4.39002 11.8946V11.8907M4.39002 11.8946V11.8907M4.39002 11.8907V11.8868M4.39002 11.8907V11.8868M4.39002 11.8868V11.8828M4.39002 11.8868V11.8828M4.39002 11.8828V11.8788M4.39002 11.8828V11.8788M4.39002 11.8788V11.8747M4.39002 11.8788V11.8747M4.39002 11.8747V11.8707M4.39002 11.8747V11.8707M4.39002 11.8707V11.8666M4.39002 11.8707V11.8666M4.39002 11.8666V11.8624M4.39002 11.8666V11.8624M4.39002 11.8624V11.8582M4.39002 11.8624V11.8582M4.39002 11.8582V11.854M4.39002 11.8582V11.854M4.39002 11.854V11.8498M4.39002 11.854V11.8498M4.39002 11.8498V11.8455M4.39002 11.8498V11.8455M4.39002 11.8455V11.8412M4.39002 11.8455V11.8412M4.39002 11.8412V11.8368M4.39002 11.8412V11.8368M4.39002 11.8368V11.8324M4.39002 11.8368V11.8324M4.39002 11.8324V11.828M4.39002 11.8324V11.828M4.39002 11.828V11.8235M4.39002 11.828V11.8235M4.39002 11.8235V11.819M4.39002 11.8235V11.819M4.39002 11.819V11.8145M4.39002 11.819V11.8145M4.39002 11.8145V11.8099M4.39002 11.8145V11.8099M4.39002 11.8099V11.8053M4.39002 11.8099V11.8053M4.39002 11.8053V11.8006M4.39002 11.8053V11.8006M4.39002 11.8006V11.7959M4.39002 11.8006V11.7959M4.39002 11.7959V11.7912M4.39002 11.7959V11.7912M4.39002 11.7912V11.7864M4.39002 11.7912V11.7864M4.39002 11.7864V11.7816M4.39002 11.7864V11.7816M4.39002 11.7816V11.7768M4.39002 11.7816V11.7768M4.39002 11.7768V11.7719M4.39002 11.7768V11.7719M4.39002 11.7719V11.767M4.39002 11.7719V11.767M4.39002 11.767V11.7621M4.39002 11.767V11.7621M4.39002 11.7621V11.7571M4.39002 11.7621V11.7571M4.39002 11.7571V11.752M4.39002 11.7571V11.752M4.39002 11.752V11.747M4.39002 11.752V11.747M4.39002 11.747V11.7419M4.39002 11.747V11.7419M4.39002 11.7419V11.7367M4.39002 11.7419V11.7367M4.39002 11.7367V11.7315M4.39002 11.7367V11.7315M4.39002 11.7315V11.7263M4.39002 11.7315V11.7263M4.39002 11.7263V11.7211M4.39002 11.7263V11.7211M4.39002 11.7211V11.7158M4.39002 11.7211V11.7158M4.39002 11.7158V11.7104M4.39002 11.7158V11.7104M4.39002 11.7104V11.7051M4.39002 11.7104V11.7051M4.39002 11.7051V11.6996M4.39002 11.7051V11.6996M4.39002 11.6996V11.6942M4.39002 11.6996V11.6942M4.39002 11.6942V11.6887M4.39002 11.6942V11.6887M4.39002 11.6887V11.6832M4.39002 11.6887V11.6832M4.39002 11.6832V11.6776M4.39002 11.6832V11.6776M4.39002 11.6776V11.672M4.39002 11.6776V11.672M4.39002 11.672V11.6663M4.39002 11.672V11.6663M4.39002 11.6663V11.6606M4.39002 11.6663V11.6606M4.39002 11.6606V11.6549M4.39002 11.6606V11.6549M4.39002 11.6549V11.6491M4.39002 11.6549V11.6491M4.39002 11.6491V11.6433M4.39002 11.6491V11.6433M4.39002 11.6433V11.6375M4.39002 11.6433V11.6375M4.39002 11.6375V11.6316M4.39002 11.6375V11.6316M4.39002 11.6316V11.6257M4.39002 11.6316V11.6257M4.39002 11.6257V11.6197M4.39002 11.6257V11.6197M4.39002 11.6197V11.6137M4.39002 11.6197V11.6137M4.39002 11.6137V11.6076M4.39002 11.6137V11.6076M4.39002 11.6076V11.6015M4.39002 11.6076V11.6015M4.39002 11.6015V11.5954M4.39002 11.6015V11.5954M4.39002 11.5954V11.5892M4.39002 11.5954V11.5892M4.39002 11.5892V11.583M4.39002 11.5892V11.583M4.39002 11.583V11.5767M4.39002 11.583V11.5767M4.39002 11.5767V11.5704M4.39002 11.5767V11.5704M4.39002 11.5704V11.5641M4.39002 11.5704V11.5641M4.39002 11.5641V11.5577M4.39002 11.5641V11.5577M4.39002 11.5577V11.5513M4.39002 11.5577V11.5513M4.39002 11.5513V11.5448M4.39002 11.5513V11.5448M4.39002 11.5448V11.5383M4.39002 11.5448V11.5383M4.39002 11.5383V11.5318M4.39002 11.5383V11.5318M4.39002 11.5318V11.5252M4.39002 11.5318V11.5252M4.39002 11.5252V11.5185M4.39002 11.5252V11.5185M4.39002 11.5185V11.5118M4.39002 11.5185V11.5118M4.39002 11.5118V11.5051M4.39002 11.5118V11.5051M4.39002 11.5051V11.4984M4.39002 11.5051V11.4984M4.39002 11.4984V11.4916M4.39002 11.4984V11.4916M4.39002 11.4916V11.4847M4.39002 11.4916V11.4847M4.39002 11.4847V11.4778M4.39002 11.4847V11.4778M4.39002 11.4778V11.4709M4.39002 11.4778V11.4709M4.39002 11.4709V11.4639M4.39002 11.4709V11.4639M4.39002 11.4639V11.4569M4.39002 11.4639V11.4569M4.39002 11.4569V11.4498M4.39002 11.4569V11.4498M4.39002 11.4498V11.4427M4.39002 11.4498V11.4427M4.39002 11.4427V11.4356M4.39002 11.4427V11.4356M4.39002 11.4356V11.4284M4.39002 11.4356V11.4284M4.39002 11.4284V11.4212M4.39002 11.4284V11.4212M4.39002 11.4212V11.4139M4.39002 11.4212V11.4139M4.39002 11.4139V11.4066M4.39002 11.4139V11.4066M4.39002 11.4066V11.3992M4.39002 11.4066V11.3992M4.39002 11.3992V11.3918M4.39002 11.3992V11.3918M4.39002 11.3918V11.3843M4.39002 11.3918V11.3843M4.39002 11.3843V11.3768M4.39002 11.3843V11.3768M4.39002 11.3768V11.3693M4.39002 11.3768V11.3693M4.39002 11.3693V11.3617M4.39002 11.3693V11.3617M4.39002 11.3617V11.3541M4.39002 11.3617V11.3541M4.39002 11.3541V11.3464M4.39002 11.3541V11.3464M4.39002 11.3464V11.3387M4.39002 11.3464V11.3387M4.39002 11.3387V11.3309M4.39002 11.3387V11.3309M4.39002 11.3309V11.3231M4.39002 11.3309V11.3231M4.39002 11.3231V11.3153M4.39002 11.3231V11.3153M4.39002 11.3153V11.3074M4.39002 11.3153V11.3074M4.39002 11.3074V11.2994M4.39002 11.3074V11.2994M4.39002 11.2994V11.2914M4.39002 11.2994V11.2914M4.39002 11.2914V11.2834M4.39002 11.2914V11.2834M4.39002 11.2834V11.2753M4.39002 11.2834V11.2753M4.39002 11.2753V11.2672M4.39002 11.2753V11.2672M4.39002 11.2672V11.259M4.39002 11.2672V11.259M4.39002 11.259V11.2508M4.39002 11.259V11.2508M4.39002 11.2508V11.2425M4.39002 11.2508V11.2425M4.39002 11.2425V11.2342M4.39002 11.2425V11.2342M4.39002 11.2342V11.2259M4.39002 11.2342V11.2259M4.39002 11.2259V11.2175M4.39002 11.2259V11.2175M4.39002 11.2175V11.209M4.39002 11.2175V11.209M4.39002 11.209V11.2005M4.39002 11.209V11.2005M4.39002 11.2005V11.192M4.39002 11.2005V11.192M4.39002 11.192V11.1834M4.39002 11.192V11.1834M4.39002 11.1834V11.1747M4.39002 11.1834V11.1747M4.39002 11.1747V11.1661M4.39002 11.1747V11.1661M4.39002 11.1661V11.1573M4.39002 11.1661V11.1573M4.39002 11.1573V11.1486M4.39002 11.1573V11.1486M4.39002 11.1486V11.1397M4.39002 11.1486V11.1397M4.39002 11.1397V11.1309M4.39002 11.1397V11.1309M4.39002 11.1309V11.122M4.39002 11.1309V11.122M4.39002 11.122V11.113M4.39002 11.122V11.113M4.39002 11.113V11.104M4.39002 11.113V11.104M4.39002 11.104V11.0949M4.39002 11.104V11.0949M4.39002 11.0949V11.0858M4.39002 11.0949V11.0858M4.39002 11.0858V11.0767M4.39002 11.0858V11.0767M4.39002 11.0767V11.0675M4.39002 11.0767V11.0675M4.39002 11.0675V11.0582M4.39002 11.0675V11.0582M4.39002 11.0582V11.0489M4.39002 11.0582V11.0489M4.39002 11.0489V11.0396M4.39002 11.0489V11.0396M4.39002 11.0396V11.0302M4.39002 11.0396V11.0302M4.39002 11.0302V11.0207M4.39002 11.0302V11.0207M4.39002 11.0207V11.0112M4.39002 11.0207V11.0112M4.39002 11.0112V11.0017M4.39002 11.0112V11.0017M4.39002 11.0017V10.9921M4.39002 11.0017V10.9921M4.39002 10.9921V10.9825M4.39002 10.9921V10.9825M4.39002 10.9825V10.9728M4.39002 10.9825V10.9728M4.39002 10.9728V10.963M4.39002 10.9728V10.963M4.39002 10.963V10.9533M4.39002 10.963V10.9533M4.39002 10.9533V10.9434M4.39002 10.9533V10.9434M4.39002 10.9434V10.9335M4.39002 10.9434V10.9335M4.39002 10.9335V10.9236M4.39002 10.9335V10.9236M4.39002 10.9236V10.9136M4.39002 10.9236V10.9136M4.39002 10.9136V10.9036M4.39002 10.9136V10.9036M4.39002 10.9036V10.8935M4.39002 10.9036V10.8935M4.39002 10.8935V10.8834M4.39002 10.8935V10.8834M4.39002 10.8834V10.8732M4.39002 10.8834V10.8732M4.39002 10.8732V10.863M4.39002 10.8732V10.863M4.39002 10.863V10.8527M4.39002 10.863V10.8527M4.39002 10.8527V10.8424M4.39002 10.8527V10.8424M4.39002 10.8424V10.832M4.39002 10.8424V10.832M4.39002 10.832V10.8215M4.39002 10.832V10.8215M4.39002 10.8215V10.8111M4.39002 10.8215V10.8111M4.39002 10.8111V10.8005M4.39002 10.8111V10.8005M4.39002 10.8005V10.7899M4.39002 10.8005V10.7899M4.39002 10.7899V10.7793M4.39002 10.7899V10.7793M4.39002 10.7793V10.7686M4.39002 10.7793V10.7686M4.39002 10.7686V10.7579M4.39002 10.7686V10.7579M4.39002 10.7579V10.7471M4.39002 10.7579V10.7471M4.39002 10.7471V10.7363M4.39002 10.7471V10.7363M4.39002 10.7363V10.7254M4.39002 10.7363V10.7254M4.39002 10.7254V10.7144M4.39002 10.7254V10.7144M4.39002 10.7144V10.7034M4.39002 10.7144V10.7034M4.39002 10.7034V10.6924M4.39002 10.7034V10.6924M4.39002 10.6924V10.6813M4.39002 10.6924V10.6813M4.39002 10.6813V10.6701M4.39002 10.6813V10.6701M4.39002 10.6701V10.6589M4.39002 10.6701V10.6589M4.39002 10.6589V10.6477M4.39002 10.6589V10.6477M4.39002 10.6477V10.6364M4.39002 10.6477V10.6364M4.39002 10.6364V10.625M4.39002 10.6364V10.625M4.39002 10.625V10.6136M4.39002 10.625V10.6136M4.39002 10.6136V10.6021M4.39002 10.6136V10.6021M4.39002 10.6021V10.5906M4.39002 10.6021V10.5906M4.39002 10.5906V10.5791M4.39002 10.5906V10.5791M4.39002 10.5791V10.5674M4.39002 10.5791V10.5674M4.39002 10.5674V10.5558M4.39002 10.5674V10.5558M4.39002 10.5558V10.544M4.39002 10.5558V10.544M4.39002 10.544V10.5323M4.39002 10.544V10.5323M4.39002 10.5323V10.5204M4.39002 10.5323V10.5204M4.39002 10.5204V10.5085M4.39002 10.5204V10.5085M4.39002 10.5085V10.4966M4.39002 10.5085V10.4966M4.39002 10.4966V10.4846M4.39002 10.4966V10.4846M4.39002 10.4846V10.4726M4.39002 10.4846V10.4726M4.39002 10.4726V10.4605M4.39002 10.4726V10.4605M4.39002 10.4605V10.4483M4.39002 10.4605V10.4483M4.39002 10.4483V10.4361M4.39002 10.4483V10.4361M4.39002 10.4361V10.4239M4.39002 10.4361V10.4239M4.39002 10.4239V10.4115M4.39002 10.4239V10.4115M4.39002 10.4115V10.3992M4.39002 10.4115V10.3992M4.39002 10.3992V10.3867M4.39002 10.3992V10.3867M4.39002 10.3867V10.3743M4.39002 10.3867V10.3743M4.39002 10.3743V10.3617M4.39002 10.3743V10.3617M4.39002 10.3617V10.3491M4.39002 10.3617V10.3491M4.39002 10.3491V10.3365M4.39002 10.3491V10.3365M4.39002 10.3365V10.3238M4.39002 10.3365V10.3238M4.39002 10.3238V10.3111M4.39002 10.3238V10.3111M4.39002 10.3111V10.2983M4.39002 10.3111V10.2983M4.39002 10.2983V10.2854M4.39002 10.2983V10.2854M4.39002 10.2854V10.2725M4.39002 10.2854V10.2725M4.39002 10.2725V10.2595M4.39002 10.2725V10.2595M4.39002 10.2595V10.2465M4.39002 10.2595V10.2465M4.39002 10.2465V10.2334M4.39002 10.2465V10.2334M4.39002 10.2334V10.2203M4.39002 10.2334V10.2203M4.39002 10.2203V10.2071M4.39002 10.2203V10.2071M4.39002 10.2071V10.1938M4.39002 10.2071V10.1938M4.39002 10.1938V10.1805M4.39002 10.1938V10.1805M4.39002 10.1805V10.1671M4.39002 10.1805V10.1671M4.39002 10.1671V10.1537M4.39002 10.1671V10.1537M4.39002 10.1537V10.1403M4.39002 10.1537V10.1403M4.39002 10.1403V10.1267M4.39002 10.1403V10.1267M4.39002 10.1267V10.1131M4.39002 10.1267V10.1131M4.39002 10.1131V10.0995M4.39002 10.1131V10.0995M4.39002 10.0995V10.0858M4.39002 10.0995V10.0858M4.39002 10.0858V10.072M4.39002 10.0858V10.072M4.39002 10.072V10.0582M4.39002 10.072V10.0582M4.39002 10.0582V10.0444M4.39002 10.0582V10.0444M4.39002 10.0444V10.0304M4.39002 10.0444V10.0304M4.39002 10.0304V10.0164M4.39002 10.0304V10.0164M4.39002 10.0164V10.0024M4.39002 10.0164V10.0024M4.39002 10.0024V9.98831M4.39002 10.0024V9.98831M4.39002 9.98831V9.97415M4.39002 9.98831V9.97415M4.39002 9.97415V9.95994M4.39002 9.97415V9.95994M4.39002 9.95994V9.94567M4.39002 9.95994V9.94567M4.39002 9.94567V9.93134M4.39002 9.94567V9.93134M4.39002 9.93134V9.91695M4.39002 9.93134V9.91695M4.39002 9.91695V9.90251M4.39002 9.91695V9.90251M4.39002 9.90251V9.88801M4.39002 9.90251V9.88801M4.39002 9.88801V9.87345M4.39002 9.88801V9.87345M4.39002 9.87345V9.85883M4.39002 9.87345V9.85883M4.39002 9.85883V9.84415M4.39002 9.85883V9.84415M4.39002 9.84415V9.82941M4.39002 9.84415V9.82941M4.39002 9.82941V9.81462M4.39002 9.82941V9.81462M4.39002 9.81462V9.79977M4.39002 9.81462V9.79977M4.39002 9.79977V9.78486M4.39002 9.79977V9.78486M4.39002 9.78486V9.76989M4.39002 9.78486V9.76989M4.39002 9.76989V9.75486M4.39002 9.76989V9.75486M4.39002 9.75486V9.73977M4.39002 9.75486V9.73977M4.39002 9.73977V9.72462M4.39002 9.73977V9.72462M4.39002 9.72462V9.70942M4.39002 9.72462V9.70942M4.39002 9.70942V9.69415M4.39002 9.70942V9.69415M4.39002 9.69415V9.67883M4.39002 9.69415V9.67883M4.39002 9.67883V9.66344M4.39002 9.67883V9.66344M4.39002 9.66344V9.648M4.39002 9.66344V9.648M4.39002 9.648V9.63249M4.39002 9.648V9.63249M4.39002 9.63249V9.61693M4.39002 9.63249V9.61693M4.39002 9.61693V9.60131M4.39002 9.61693V9.60131M4.39002 9.60131V9.58562M4.39002 9.60131V9.58562M4.39002 9.58562V9.56988M4.39002 9.58562V9.56988M4.39002 9.56988V9.55407M4.39002 9.56988V9.55407M4.39002 9.55407V9.53821M4.39002 9.55407V9.53821M4.39002 9.53821V9.52228M4.39002 9.53821V9.52228M4.39002 9.52228V9.5063M4.39002 9.52228V9.5063M4.39002 9.5063V9.49025M4.39002 9.5063V9.49025M4.39002 9.49025V9.47415M4.39002 9.49025V9.47415M4.39002 9.47415V9.45798M4.39002 9.47415V9.45798M4.39002 9.45798V9.44175M4.39002 9.45798V9.44175M4.39002 9.44175V9.42546M4.39002 9.44175V9.42546M4.39002 9.42546V9.40911M4.39002 9.42546V9.40911M4.39002 9.40911V9.3927M4.39002 9.40911V9.3927M4.39002 9.3927V9.37622M4.39002 9.3927V9.37622M4.39002 9.37622V9.35969M4.39002 9.37622V9.35969M4.39002 9.35969V9.34309M4.39002 9.35969V9.34309M4.39002 9.34309V9.32643M4.39002 9.34309V9.32643M4.39002 9.32643V9.30971M4.39002 9.32643V9.30971M4.39002 9.30971V9.29293M4.39002 9.30971V9.29293M4.39002 9.29293V9.27609M4.39002 9.29293V9.27609M4.39002 9.27609V9.25918M4.39002 9.27609V9.25918M4.39002 9.25918V9.24222M4.39002 9.25918V9.24222M4.39002 9.24222V9.22519M4.39002 9.24222V9.22519M4.39002 9.22519V9.20809M4.39002 9.22519V9.20809M4.39002 9.20809V9.19094M4.39002 9.20809V9.19094M4.39002 9.19094V9.17372M4.39002 9.19094V9.17372M4.39002 9.17372V9.15644M4.39002 9.17372V9.15644M4.39002 9.15644V9.1391M4.39002 9.15644V9.1391M4.39002 9.1391V9.12169M4.39002 9.1391V9.12169M4.39002 9.12169V9.10422M4.39002 9.12169V9.10422M4.39002 9.10422V9.08669M4.39002 9.10422V9.08669M4.39002 9.08669V9.0691M4.39002 9.08669V9.0691M4.39002 9.0691V9.05144M4.39002 9.0691V9.05144M4.39002 9.05144V9.03372M4.39002 9.05144V9.03372M4.39002 9.03372V9.01593M4.39002 9.03372V9.01593M4.39002 9.01593V8.99808M4.39002 9.01593V8.99808M4.39002 8.99808V8.98017M4.39002 8.99808V8.98017M4.39002 8.98017V8.96219M4.39002 8.98017V8.96219M4.39002 8.96219V8.94415V8.96219Z" fill="white" stroke="url(#paint0_linear_2454_255)"/>
<defs>
<linearGradient id="paint0_linear_2454_255" x1="2.84257" y1="-5.57142" x2="26.7926" y2="2.2042" gradientUnits="userSpaceOnUse">
<stop stop-color="#AF92FF"/>
<stop offset="0.0854623" stop-color="#6D39FF"/>
<stop offset="0.499768" stop-color="#5829DB"/>
<stop offset="0.598108" stop-color="#3913A6"/>
<stop offset="0.704435" stop-color="#6D39FF"/>
<stop offset="0.744822" stop-color="#6D39FF"/>
<stop offset="1" stop-color="#6D39FF"/>
</linearGradient>
</defs>
</svg>
