<svg width="56" height="53" viewBox="0 0 56 53" fill="none" xmlns="http://www.w3.org/2000/svg">
<path d="M28 0C43.4644 0 56 11.864 56 26.5C56 41.1359 43.4644 53 28 53C23.0518 53.0075 18.1907 51.7682 13.916 49.4092L0.0112394 53L3.79684 39.8348C1.3023 35.7879 -0.00822745 31.1852 3.88647e-05 26.5C3.88647e-05 11.864 12.5356 0 28 0ZM18.4576 14.045L17.8976 14.0662C17.5351 14.0871 17.1808 14.1772 16.856 14.3312C16.5523 14.494 16.275 14.6975 16.0328 14.9354C15.6968 15.2348 15.5064 15.4945 15.302 15.7463C14.2664 17.0207 13.7088 18.5853 13.7172 20.193C13.7228 21.4915 14.0812 22.7555 14.6412 23.9374C15.7864 26.3277 17.6708 28.8585 20.1572 31.2037C20.7564 31.7682 21.3444 32.3353 21.9772 32.8626C25.0667 35.437 28.7483 37.2935 32.7292 38.2845L34.3196 38.5151C34.8376 38.5416 35.3556 38.5045 35.8764 38.4806C36.6919 38.4408 37.4881 38.2318 38.2088 37.8685C38.5755 37.6897 38.9333 37.4952 39.2812 37.2855C39.2812 37.2855 39.4016 37.2113 39.6312 37.047C40.0092 36.782 40.2416 36.5938 40.5552 36.2838C40.7876 36.0559 40.9892 35.7882 41.1432 35.4835C41.3616 35.0515 41.58 34.2274 41.6696 33.541C41.7368 33.0163 41.7172 32.7301 41.7088 32.5526C41.6976 32.269 41.4484 31.9749 41.1768 31.8503L39.5472 31.1587C39.5472 31.1587 37.1112 30.1543 35.6216 29.513C35.4657 29.4486 35.2987 29.4118 35.1288 29.4044C34.9372 29.3858 34.7437 29.4062 34.5611 29.4642C34.3786 29.5223 34.2112 29.6166 34.0704 29.7409C34.0564 29.7356 33.8688 29.8867 31.8444 32.2081C31.7282 32.3558 31.5682 32.4675 31.3847 32.5289C31.2012 32.5902 31.0025 32.5985 30.814 32.5526C30.6316 32.5063 30.4529 32.4478 30.2792 32.3777C29.932 32.2399 29.8116 32.1869 29.5736 32.0915C27.9666 31.4278 26.4787 30.531 25.1636 29.4335C24.8108 29.142 24.4832 28.824 24.1472 28.5166C23.0457 27.5182 22.0856 26.3887 21.2912 25.1564L21.126 24.9047C21.0074 24.7355 20.9114 24.553 20.8404 24.3614C20.734 23.9719 21.0112 23.6592 21.0112 23.6592C21.0112 23.6592 21.6916 22.9543 22.008 22.5727C22.316 22.2017 22.5764 21.8413 22.7444 21.5842C23.0748 21.0807 23.1784 20.564 23.0048 20.1638C22.2208 18.3512 21.4088 16.5466 20.5744 14.7552C20.4092 14.4001 19.9192 14.1457 19.474 14.0953C19.3228 14.0794 19.1716 14.0635 19.0204 14.0529C18.6444 14.0353 18.2676 14.0388 17.892 14.0635L18.4548 14.0423L18.4576 14.045Z" fill="white"/>
</svg>
