<svg width="40" height="28" viewBox="0 0 40 28" fill="none" xmlns="http://www.w3.org/2000/svg">
<path d="M38.1549 4.47075L38.1549 4.47097C38.5522 5.96316 38.7572 8.30513 38.8604 10.3098C38.9116 11.3047 38.9372 12.2039 38.95 12.8544C38.9564 13.1796 38.9596 13.4423 38.9612 13.6235C38.962 13.7141 38.9624 13.7842 38.9626 13.8316L38.9628 13.8852L38.9628 13.8986L38.9628 13.9019V13.9027V13.9028V13.903V13.9038L38.9628 13.907L38.9628 13.9204L38.9626 13.9741C38.9624 14.0214 38.962 14.0916 38.9612 14.1822C38.9596 14.3634 38.9564 14.6261 38.95 14.9512C38.9372 15.6018 38.9116 16.501 38.8604 17.4959C38.7572 19.5005 38.5522 21.8425 38.1549 23.3347L38.1549 23.3349C37.7462 24.8724 36.5428 26.0822 35.0189 26.4924L35.0186 26.4925C34.3015 26.686 32.9984 26.8396 31.4049 26.9567C29.8256 27.0727 28.0026 27.1503 26.2711 27.2021C24.5404 27.2539 22.9051 27.2798 21.7022 27.2927C21.1009 27.2992 20.6078 27.3025 20.2653 27.3041C20.094 27.3049 19.9604 27.3053 19.8696 27.3055L19.7664 27.3057L19.7401 27.3057L19.7335 27.3057H19.7319H19.7315C19.7314 27.3057 19.7314 27.3057 19.7314 27.8057C19.7314 27.3057 19.7314 27.3057 19.7313 27.3057H19.7309H19.7293L19.7227 27.3057L19.6965 27.3057L19.5932 27.3055C19.5024 27.3053 19.3688 27.3049 19.1975 27.3041C18.855 27.3025 18.3619 27.2992 17.7606 27.2927C16.5577 27.2798 14.9224 27.2539 13.1917 27.2021C11.4602 27.1503 9.63726 27.0727 8.05789 26.9567C6.46437 26.8396 5.1613 26.686 4.4442 26.4925L4.44393 26.4924C2.92001 26.0822 1.71661 24.8724 1.30796 23.3349L1.3079 23.3347C0.910576 21.8425 0.705607 19.5005 0.602428 17.4959C0.551221 16.501 0.525599 15.6018 0.512788 14.9512C0.506385 14.6261 0.503187 14.3634 0.501591 14.1822C0.500793 14.0916 0.500395 14.0214 0.500197 13.9741L0.500024 13.9204L0.500003 13.907L0.5 13.9038L0.5 13.903L0.5 13.9028L0.5 13.9027L0.5 13.9019L0.500003 13.8986L0.500024 13.8852L0.500197 13.8316C0.500395 13.7842 0.500793 13.7141 0.501591 13.6235C0.503187 13.4423 0.506385 13.1796 0.512788 12.8544C0.525599 12.2039 0.551221 11.3047 0.602428 10.3098C0.705607 8.30513 0.910576 5.96316 1.3079 4.47097L1.30796 4.47075C1.71661 2.93322 2.92001 1.72351 4.44393 1.31322L4.4442 1.31315C5.1613 1.11965 6.46437 0.966042 8.05789 0.848981C9.63726 0.732958 11.4602 0.655373 13.1917 0.603573C14.9224 0.551797 16.5577 0.525896 17.7606 0.512944C18.3619 0.50647 18.855 0.503233 19.1975 0.501616C19.3688 0.500807 19.5024 0.500403 19.5932 0.500201L19.6965 0.500025L19.7227 0.500003L19.7293 0.5L19.7309 0.5L19.7313 0.5C19.7314 0.5 19.7314 0.5 19.7314 0C19.7314 0.5 19.7314 0.5 19.7315 0.5L19.7319 0.5L19.7335 0.5L19.7401 0.500003L19.7664 0.500025L19.8696 0.500201C19.9604 0.500403 20.094 0.500807 20.2653 0.501616C20.6078 0.503233 21.1009 0.50647 21.7022 0.512944C22.9051 0.525896 24.5404 0.551797 26.2711 0.603573C28.0026 0.655373 29.8256 0.732958 31.4049 0.848981C32.9984 0.966042 34.3015 1.11965 35.0186 1.31315L35.0189 1.31322C36.5428 1.72351 37.7462 2.93322 38.1549 4.47075ZM15.1957 19.7697V20.6295L15.943 20.2043L26.2558 14.336L27.0196 13.9014L26.2558 13.4668L15.943 7.59991L15.1957 7.17481V8.0345V19.7697Z" fill="white" stroke="url(#paint0_linear_2454_260)"/>
<defs>
<linearGradient id="paint0_linear_2454_260" x1="6.54358" y1="-4.17085" x2="37.0665" y2="26.3012" gradientUnits="userSpaceOnUse">
<stop stop-color="#AF92FF"/>
<stop offset="0.193998" stop-color="#6D39FF"/>
<stop offset="0.324212" stop-color="#3913A6"/>
<stop offset="0.704435" stop-color="#6D39FF"/>
<stop offset="0.744822" stop-color="#6D39FF"/>
<stop offset="1" stop-color="#6D39FF"/>
</linearGradient>
</defs>
</svg>
