<svg width="1089" height="607" viewBox="0 0 1089 607" fill="none" xmlns="http://www.w3.org/2000/svg">
<path d="M0 109.472C0 98.4373 8.93727 89.4875 19.972 89.4721L695.028 88.5279C706.063 88.5125 715 79.5627 715 68.528V20C715 8.9543 723.954 0 735 0L813.836 0C824.75 0 833.648 8.74907 833.833 19.6611L834.667 68.8389C834.852 79.7509 843.75 88.5 854.664 88.5H1069C1080.05 88.5 1089 97.4543 1089 108.5V586.5C1089 597.546 1080.05 606.5 1069 606.5H20C8.95434 606.5 0 597.546 0 586.5L0 109.472Z" fill="#D9D9D9"/>
</svg>
