<svg width="38" height="32" viewBox="0 0 38 32" fill="none" xmlns="http://www.w3.org/2000/svg">
<path d="M28.4271 8.25164L28.7535 8.63037L28.7536 8.63029L28.7539 8.63002L28.7551 8.629L28.7596 8.62511L28.7769 8.61016L28.8423 8.55343C28.8988 8.5044 28.9797 8.43385 29.0781 8.34745C29.2748 8.17476 29.5418 7.93824 29.8225 7.68344C30.1028 7.42909 30.3992 7.15425 30.6538 6.90544C30.9003 6.66454 31.1324 6.4243 31.2649 6.24636C31.265 6.24629 31.2651 6.24622 31.2651 6.24615L30.8641 5.94751C30.9565 5.82354 30.8678 5.63249 30.4715 5.65482C30.4714 5.65483 30.4712 5.65484 30.4711 5.65484C30.4668 5.65508 30.4625 5.65535 30.4582 5.65565C30.4599 5.65326 30.4615 5.65093 30.4632 5.64865L30.4631 5.64887C30.4614 5.6511 30.4597 5.65336 30.458 5.65566C30.3866 5.66047 30.3056 5.67205 30.2142 5.69197C29.7599 5.79117 28.564 6.61031 28.564 6.61031M28.4271 8.25164L28.2867 6.19422L28.2913 6.19118L28.564 6.61031M28.4271 8.25164L28.7535 8.63041L28.7459 8.63695L28.7458 8.63688L14.9339 20.0648V20.1037L14.7124 20.2523C14.6149 20.3177 14.5596 20.4143 14.552 20.5133C14.552 20.5136 14.552 20.5139 14.5519 20.5142L14.1294 26.6232L13.1535 26.7385C12.1729 23.6152 10.7632 18.923 10.5812 18.3156C10.569 18.2938 10.5561 18.2671 10.5447 18.236L10.5255 18.183L10.5185 18.1272L10.5139 18.0911L10.475 17.7805L10.7374 17.6098L28.2857 6.1949M28.4271 8.25164L28.2857 6.1949M28.564 6.61031L11.01 18.0289L28.2857 6.1949M28.564 6.61031L28.2815 6.19776L28.2816 6.1977L28.2819 6.19752L28.2827 6.19694L28.2857 6.1949M36.8508 1.51655L36.8511 1.51718C36.9997 1.84765 37.1447 2.29506 36.9748 3.14554L36.6709 4.66503L36.6709 4.66518L36.6557 4.74115C35.2657 11.7033 32.9603 23.2505 31.3877 29.365C31.1504 30.2875 30.4768 31.1839 29.435 31.1839C28.955 31.1839 28.3998 30.9906 27.7768 30.5407C25.8715 29.1636 22.4614 26.6289 19.5966 24.4897C18.1482 23.4077 16.8382 22.4264 15.9389 21.7517L15.2034 21.2L15.14 22.1172L14.6648 28.9966C14.6648 28.9968 14.6647 28.997 14.6647 28.9971C14.6602 29.058 14.6337 29.1242 14.5737 29.1935L14.5724 29.1949C14.5066 29.2714 14.4272 29.3129 14.3467 29.3216L14.3467 29.3216L14.3447 29.3218L14.3443 29.3219L14.3435 29.322L14.343 29.322L14.3405 29.3222C14.3357 29.3227 14.3269 29.3235 14.3145 29.3243C14.2895 29.3259 14.2509 29.3277 14.2022 29.3277C13.5344 29.3277 13.1566 29.0328 13.033 28.6569C12.2364 26.2243 10.5208 20.5358 10.0281 18.8993L9.94958 18.6384L9.68776 18.563C8.18422 18.1298 3.46368 16.7434 1.21289 15.7529C1.02529 15.6695 0.78973 15.4575 0.639396 15.1633C0.493849 14.8785 0.452046 14.5655 0.563618 14.2699C0.722091 13.8551 1.10949 13.4699 1.83883 13.1727L1.8398 13.1723C11.039 9.40112 33.4846 0.830229 33.7118 0.744L33.7154 0.742599C33.7716 0.720739 34.3833 0.5 35.0687 0.5C35.9719 0.5 36.5663 0.881482 36.8508 1.51655Z" fill="white" stroke="url(#paint0_linear_2454_251)"/>
<defs>
<linearGradient id="paint0_linear_2454_251" x1="6.22662" y1="-4.75258" x2="40.4393" y2="23.7704" gradientUnits="userSpaceOnUse">
<stop stop-color="#AF92FF"/>
<stop offset="0.0854623" stop-color="#6D39FF"/>
<stop offset="0.499768" stop-color="#5829DB"/>
<stop offset="0.598108" stop-color="#3913A6"/>
<stop offset="0.704435" stop-color="#6D39FF"/>
<stop offset="0.744822" stop-color="#6D39FF"/>
<stop offset="1" stop-color="#6D39FF"/>
</linearGradient>
</defs>
</svg>
